:FULLY-SPECIFIED
:FORCE-ALL-JOINTS-BE-3DOF
:DEGREES
510
root 6.42045 15.6835 -4.90326 176.619 73.1911 172.467
lfemur -23.2095 -18.9311 -26.8641
ltibia 54.7975 -0 0
lfoot -27.9274 -3.90745 -0.133698
ltoes 11.8477 -0 0
rfemur -59.7906 2.2691 4.19042
rtibia 79.6006 -0 0
rfoot 10.8678 10.1201 -0.665874
rtoes -19.1862 0 0
lowerback 7.33114 -0.0171348 -1.70664
upperback 2.08333 0.243092 2.70686
thorax -2.00782 0.205406 3.73801
lowerneck -7.35016 -12.7898 -3.96387
upperneck 9.80036 -17.0327 3.78173
head 5.08753 -8.28008 0.670392
lclavicle 2.44293e-14 1.37319e-14 -1.29211e-29
lhumerus -48.2286 -29.1867 114.515
lradius 57.7287 -0 0
lwrist 10.7028 0 0
lhand 1.87985 0.115414 -0.011105
lfingers 7.12502 -0 0
lthumb 27.3705 27.9445 -0.0764056
rclavicle 2.44293e-14 1.37319e-14 -1.29211e-29
rhumerus -25.1805 25.137 -92.3107
rradius 100.171 -0 0
rwrist 1.90904 0 0
rhand -16.4269 -21.7331 0.170889
rfingers 7.12502 -0 0
rthumb 9.78437 -51.3257 0.175012
511
root 6.51526 15.6142 -4.81978 176.895 71.5899 172.929
lfemur -23.1092 -18.8732 -26.9194
ltibia 55.6887 -0 0
lfoot -28.3071 -3.81563 -0.138948
ltoes 11.1905 -0 0
rfemur -59.8803 2.11758 3.72655
rtibia 79.1456 -0 0
rfoot 10.5919 10.2517 -0.676845
rtoes -19.7264 0 0
lowerback 7.56119 0.0328897 -1.6885
upperback 2.24495 0.333579 2.88001
thorax -1.97555 0.25613 3.9005
lowerneck -7.23186 -13.0395 -4.14365
upperneck 10.0084 -17.3689 3.92072
head 5.16397 -8.43829 0.710541
lclavicle 2.72882e-14 1.53819e-14 -1.33188e-29
lhumerus -48.1129 -28.9434 114.467
lradius 57.8591 -0 0
lwrist 11.2394 0 0
lhand 1.32727 0.0147673 0.00527272
lfingers 7.12502 -0 0
lthumb 26.8393 27.8965 -0.0684752
rclavicle 2.72882e-14 1.53819e-14 -1.33188e-29
rhumerus -23.5688 24.9857 -91.9333
rradius 101.87 -0 0
rwrist -0.0506177 0 0
rhand -16.8456 -21.8463 0.18187
rfingers 7.12502 -0 0
rthumb 9.38019 -51.4467 0.186463
512
root 6.60839 15.5444 -4.73765 177.124 70.0133 173.337
lfemur -23.0408 -18.7844 -26.9507
ltibia 56.6095 -0 0
lfoot -28.6891 -3.72019 -0.143499
ltoes 10.5085 -0 0
rfemur -59.9277 1.9565 3.26205
rtibia 78.6426 -0 0
rfoot 10.295 10.3643 -0.6834
rtoes -20.3059 0 0
lowerback 7.79433 0.0847412 -1.66315
upperback 2.40976 0.427065 3.05733
thorax -1.94187 0.308538 4.06289
lowerneck -7.11006 -13.2866 -4.32234
upperneck 10.2139 -17.7027 4.06032
head 5.23929 -8.59512 0.750618
lclavicle 3.01683e-14 1.70641e-14 -1.36391e-29
lhumerus -47.9893 -28.6903 114.408
lradius 57.9893 -0 0
lwrist 11.7842 0 0
lhand 0.736528 -0.0957797 0.0229008
lfingers 7.12502 -0 0
lthumb 26.2714 27.8417 -0.0593802
rclavicle 3.01683e-14 1.70641e-14 -1.36391e-29
rhumerus -21.9398 24.798 -91.5522
rradius 103.584 -0 0
rwrist -2.0535 0 0
rhand -17.2837 -21.9642 0.192276
rfingers 7.12502 -0 0
rthumb 8.95724 -51.5729 0.19734
513
root 6.69953 15.4745 -4.65719 177.317 68.4662 173.703
lfemur -23.0055 -18.6638 -26.957
ltibia 57.5592 -0 0
lfoot -29.0727 -3.62121 -0.147296
ltoes 9.80219 -0 0
rfemur -59.9307 1.78637 2.79776
rtibia 78.0908 -0 0
rfoot 9.97694 10.4569 -0.685454
rtoes -20.925 0 0
lowerback 8.03019 0.138336 -1.63033
upperback 2.57755 0.523453 3.23859
thorax -1.9068 0.36258 4.22483
lowerneck -6.98495 -13.5304 -4.49947
upperneck 10.4163 -18.0333 4.20034
head 5.31328 -8.75016 0.790547
lclavicle 3.30638e-14 1.8776e-14 -1.38781e-29
lhumerus -47.8577 -28.4278 114.338
lradius 58.1191 -0 0
lwrist 12.3363 0 0
lhand 0.107355 -0.216426 0.0415698
lfingers 7.12502 -0 0
lthumb 25.6665 27.7799 -0.0492274
rclavicle 3.30638e-14 1.8776e-14 -1.38781e-29
rhumerus -20.2975 24.5731 -91.1696
rradius 105.312 -0 0
rwrist -4.0969 0 0
rhand -17.7411 -22.0867 0.201981
rfingers 7.12502 -0 0
rthumb 8.51569 -51.7044 0.207511
514
root 6.78836 15.4048 -4.57872 177.484 66.9531 174.034
lfemur -23.0048 -18.5104 -26.9373
ltibia 58.5368 -0 0
lfoot -29.4571 -3.51877 -0.150288
ltoes 9.07208 -0 0
rfemur -59.8875 1.60773 2.33452
rtibia 77.4893 -0 0
rfoot 9.63754 10.5284 -0.682957
rtoes -21.5841 0 0
lowerback 8.26837 0.193588 -1.5898
upperback 2.74808 0.622651 3.42358
thorax -1.87037 0.418208 4.38593
lowerneck -6.85671 -13.7703 -4.67457
upperneck 10.615 -18.3597 4.34058
head 5.38572 -8.90298 0.830251
lclavicle 3.59691e-14 2.05153e-14 -1.40328e-29
lhumerus -47.7181 -28.1558 114.255
lradius 58.2482 -0 0
lwrist 12.8947 0 0
lhand -0.560517 -0.347372 0.0610447
lfingers 7.12502 -0 0
lthumb 25.0244 27.711 -0.0381416
rclavicle 3.59691e-14 2.05153e-14 -1.40328e-29
rhumerus -18.6458 24.3099 -90.788
rradius 107.05 -0 0
rwrist -6.17807 0 0
rhand -18.2176 -22.2139 0.210855
rfingers 7.12502 -0 0
rthumb 8.05571 -51.841 0.216841
515
root 6.87458 15.3356 -4.50256 177.631 65.4787 174.338
lfemur -23.0401 -18.3229 -26.8908
ltibia 59.5416 -0 0
lfoot -29.8416 -3.41292 -0.152427
ltoes 8.31867 -0 0
rfemur -59.7961 1.42116 1.8731
rtibia 76.8373 -0 0
rfoot 9.27659 10.5776 -0.675893
rtoes -22.2835 0 0
lowerback 8.50849 0.250408 -1.5413
upperback 2.92114 0.724566 3.61208
thorax -1.83258 0.475373 4.54583
lowerneck -6.72556 -14.0056 -4.84715
upperneck 10.8096 -18.6812 4.48086
head 5.45639 -9.05318 0.869658
lclavicle 3.88786e-14 2.22794e-14 -1.41008e-29
lhumerus -47.5708 -27.8744 114.161
lradius 58.3762 -0 0
lwrist 13.4586 0 0
lhand -1.26736 -0.488816 0.0810647
lfingers 7.12502 -0 0
lthumb 24.3449 27.6347 -0.0262657
rclavicle 3.88786e-14 2.22794e-14 -1.41008e-29
rhumerus -16.9886 24.0077 -90.4096
rradius 108.794 -0 0
rwrist -8.29431 0 0
rhand -18.713 -22.3456 0.218768
rfingers 7.12502 -0 0
rthumb 7.57747 -51.9826 0.225193
516
root 6.95787 15.2671 -4.42903 177.763 64.0477 174.619
lfemur -23.1124 -18.1003 -26.8166
ltibia 60.5726 -0 0
lfoot -30.2253 -3.30375 -0.15367
ltoes 7.54247 -0 0
rfemur -59.6546 1.22726 1.41425
rtibia 76.1338 -0 0
rfoot 8.8939 10.6035 -0.664284
rtoes -23.0236 0 0
lowerback 8.75017 0.308704 -1.48459
upperback 3.09648 0.829109 3.80387
thorax -1.79347 0.534027 4.70416
lowerneck -6.59171 -14.2357 -5.01672
upperneck 10.9994 -18.9967 4.621
head 5.5251 -9.20033 0.908695
lclavicle 4.17867e-14 2.40659e-14 -1.40801e-29
lhumerus -47.4158 -27.5839 114.055
lradius 58.5028 -0 0
lwrist 14.0271 0 0
lhand -2.01344 -0.640956 0.101342
lfingers 7.12502 -0 0
lthumb 23.6276 27.5508 -0.0137618
rclavicle 4.17867e-14 2.40659e-14 -1.40801e-29
rhumerus -15.3298 23.6657 -90.0369
rradius 110.541 -0 0
rwrist -10.4429 0 0
rhand -19.2271 -22.4818 0.225586
rfingers 7.12502 -0 0
rthumb 7.08114 -52.1292 0.232426
517
root 7.03791 15.1998 -4.35843 177.885 62.6648 174.88
lfemur -23.223 -17.8413 -26.7142
ltibia 61.6292 -0 0
lfoot -30.6075 -3.19133 -0.153975
ltoes 6.74397 -0 0
rfemur -59.4612 1.02664 0.958711
rtibia 75.3781 -0 0
rfoot 8.48926 10.6051 -0.648193
rtoes -23.8046 0 0
lowerback 8.99302 0.368385 -1.41943
upperback 3.27389 0.936194 3.99873
thorax -1.75305 0.594124 4.86055
lowerneck -6.45538 -14.4599 -5.18279
upperneck 11.1839 -19.3055 4.76084
head 5.59162 -9.34402 0.947293
lclavicle 4.46877e-14 2.58723e-14 -1.39693e-29
lhumerus -47.2532 -27.2843 113.936
lradius 58.6278 -0 0
lwrist 14.5993 0 0
lhand -2.79902 -0.803987 0.12156
lfingers 7.12502 -0 0
lthumb 22.8723 27.4592 -0.000812093
rclavicle 4.46877e-14 2.58723e-14 -1.39693e-29
rhumerus -13.6731 23.2835 -89.6722
rradius 112.288 -0 0
rwrist -12.6211 0 0
rhand -19.7598 -22.6224 0.231173
rfingers 7.12502 -0 0
rthumb 6.5669 -52.2807 0.238396
518
root 7.1144 15.1338 -4.2911 178 61.3345 175.123
lfemur -23.3728 -17.5448 -26.5828
ltibia 62.7103 -0 0
lfoot -30.9875 -3.07573 -0.153308
ltoes 5.9237 -0 0
rfemur -59.214 0.819937 0.507165
rtibia 74.5691 -0 0
rfoot 8.06246 10.581 -0.627725
rtoes -24.6269 0 0
lowerback 9.23666 0.429355 -1.34556
upperback 3.45313 1.04574 4.19645
thorax -1.71134 0.655617 5.01464
lowerneck -6.3168 -14.6776 -5.34484
upperneck 11.3626 -19.6065 4.90022
head 5.65576 -9.48383 0.985383
lclavicle 4.7576e-14 2.76963e-14 -1.37678e-29
lhumerus -47.0831 -26.9757 113.804
lradius 58.7509 -0 0
lwrist 15.1743 0 0
lhand -3.62438 -0.978101 0.141375
lfingers 7.12502 -0 0
lthumb 22.0788 27.3597 0.0123809
rclavicle 4.7576e-14 2.76963e-14 -1.37678e-29
rhumerus -12.0225 22.8606 -89.3178
rradius 114.033 -0 0
rwrist -14.8262 0 0
rhand -20.3109 -22.7672 0.235391
rfingers 7.12502 -0 0
rthumb 6.03493 -52.4371 0.242959
519
root 7.18701 15.0696 -4.22733 178.112 60.0615 175.352
lfemur -23.5629 -17.2093 -26.4222
ltibia 63.8152 -0 0
lfoot -31.3645 -2.95702 -0.151637
ltoes 5.08214 -0 0
rfemur -58.911 0.60779 0.0602789
rtibia 73.7061 -0 0
rfoot 7.61328 10.5304 -0.60303
rtoes -25.4908 0 0
lowerback 9.4807 0.491517 -1.26275
upperback 3.63398 1.15765 4.39679
thorax -1.66837 0.71846 5.16604
lowerneck -6.1762 -14.8882 -5.50236
upperneck 11.535 -19.899 5.03898
head 5.71729 -9.61933 1.0229
lclavicle 5.0446e-14 2.95352e-14 -1.34754e-29
lhumerus -46.9056 -26.6582 113.66
lradius 58.8717 -0 0
lwrist 15.7513 0 0
lhand -4.48979 -1.16348 0.160412
lfingers 7.12502 -0 0
lthumb 21.2468 27.2521 0.0255928
rclavicle 5.0446e-14 2.95352e-14 -1.34754e-29
rhumerus -10.3816 22.3966 -88.9759
rradius 115.771 -0 0
rwrist -17.0554 0 0
rhand -20.8801 -22.9163 0.2381
rfingers 7.12502 -0 0
rthumb 5.48539 -52.5982 0.245966
